<svg xmlns="http://www.w3.org/2000/svg" viewBox="0 0 100 100">
  <defs>
    <linearGradient id="bg" x1="0" y1="0" x2="1" y2="1">
      <stop offset="0%" stop-color="#0ea5e9"/>
      <stop offset="100%" stop-color="#0369a1"/>
    </linearGradient>
  </defs>
  <circle cx="50" cy="50" r="48" fill="url(#bg)"/>
  <g fill="none" stroke="white" stroke-linecap="round" stroke-linejoin="round">
    <path d="M28,58 Q42,38 58,50 Q74,62 72,42" stroke-width="4" opacity="0.5"/>
    <path d="M30,50 Q40,35 55,45 Q70,55 75,40" stroke-width="3.5" opacity="0.35"/>
    <path d="M38,62 Q50,50 62,60 Q68,65 72,58" stroke-width="2.5" opacity="0.25"/>
  </g>
  <g fill="white">
    <ellipse cx="48" cy="52" rx="20" ry="9"/>
    <polygon points="66,52 82,36 82,68"/>
    <circle cx="33" cy="50" r="2.5" fill="#0369a1"/>
    <path d="M48,43 Q52,32 56,43" fill="none" stroke="white" stroke-width="2"/>
    <path d="M52,61 Q56,72 58,61" fill="none" stroke="white" stroke-width="1.5"/>
  </g>
</svg>
